<?xml version="1.0" encoding="utf-8"?>
<!-- Generator: Adobe Illustrator 16.0.4, SVG Export Plug-In . SVG Version: 6.00 Build 0)  -->
<!DOCTYPE svg PUBLIC "-//W3C//DTD SVG 1.1//EN" "http://www.w3.org/Graphics/SVG/1.1/DTD/svg11.dtd">
<svg version="1.1" id="Capa_1" xmlns="http://www.w3.org/2000/svg" xmlns:xlink="http://www.w3.org/1999/xlink" x="0px" y="0px"
	 width="87px" height="87px" viewBox="0 0 87 87" enable-background="new 0 0 87 87" xml:space="preserve">
<circle fill="#96A9C6" stroke="#96A9C6" stroke-miterlimit="10" cx="43.5" cy="43.642" r="43"/>
<path fill="#FFFFFF" stroke="#FFFFFF" stroke-miterlimit="10" d="M55.998,33.42l-5.846-11.584v-2.668h0.321
	c0.534,0,0.966-0.433,0.966-0.966v-3.864c0-0.534-0.432-0.967-0.966-0.967H36.526c-0.534,0-0.966,0.433-0.966,0.967v3.864
	c0,0.533,0.433,0.966,0.966,0.966h0.322v2.668L31.002,33.42c-0.709,1.404-1.265,3.737-1.265,5.311v31.64
	c0,1.953,1.589,3.542,3.542,3.542h20.44c1.954,0,3.542-1.589,3.542-3.542V38.73C57.262,37.157,56.707,34.824,55.998,33.42
	L55.998,33.42z M37.492,15.304h12.016v1.933H37.492V15.304L37.492,15.304z M38.677,22.501c0.068-0.135,0.104-0.283,0.104-0.435
	v-2.898h9.438v2.898c0,0.151,0.036,0.3,0.104,0.435L52,29.786c-0.697,0.226-1.186,0.59-1.609,0.906
	c-0.572,0.429-0.987,0.738-1.911,0.738s-1.339-0.31-1.911-0.738c-0.67-0.5-1.503-1.123-3.069-1.123
	c-1.566,0-2.399,0.623-3.069,1.123c-0.573,0.429-0.987,0.738-1.911,0.738s-1.338-0.31-1.911-0.738
	c-0.423-0.315-0.912-0.681-1.608-0.906L38.677,22.501z M55.33,70.37c0,0.888-0.723,1.609-1.61,1.609H33.28
	c-0.888,0-1.61-0.722-1.61-1.609V38.73c0-1.271,0.484-3.305,1.057-4.44l1.383-2.74c0.555,0.103,0.902,0.361,1.342,0.69
	c0.669,0.5,1.502,1.123,3.068,1.123c1.566,0,2.399-0.623,3.068-1.123c0.574-0.429,0.988-0.738,1.912-0.738
	c0.924,0,1.338,0.31,1.912,0.738c0.669,0.5,1.503,1.123,3.068,1.123c1.566,0,2.399-0.623,3.069-1.123
	c0.439-0.329,0.787-0.588,1.342-0.69l1.383,2.74c0.572,1.136,1.057,3.169,1.057,4.44V70.37z"/>
<path fill="#FFFFFF" stroke="#FFFFFF" stroke-miterlimit="10" d="M41.679,23.032h3.643c0.534,0,0.966-0.433,0.966-0.966
	c0-0.534-0.432-0.966-0.966-0.966h-3.643c-0.534,0-0.966,0.432-0.966,0.966C40.712,22.6,41.145,23.032,41.679,23.032z"/>
</svg>
