<?xml version="1.0" encoding="utf-8"?>
<!-- Generator: Adobe Illustrator 16.0.4, SVG Export Plug-In . SVG Version: 6.00 Build 0)  -->
<!DOCTYPE svg PUBLIC "-//W3C//DTD SVG 1.1//EN" "http://www.w3.org/Graphics/SVG/1.1/DTD/svg11.dtd">
<svg version="1.1" id="Capa_1" xmlns="http://www.w3.org/2000/svg" xmlns:xlink="http://www.w3.org/1999/xlink" x="0px" y="0px"
	 width="86px" height="86px" viewBox="0 0 86 86" enable-background="new 0 0 86 86" xml:space="preserve">
<g>
	<circle fill="#96A9C6" cx="43" cy="43.738" r="43"/>
	<path fill="#FFFFFF" d="M53.349,40.991c4.562,0,8.214-3.681,8.214-8.243c0-4.56-3.652-8.241-8.214-8.241
		c-4.561,0-8.241,3.682-8.241,8.241C45.107,37.311,48.788,40.991,53.349,40.991z M31.371,40.991c4.561,0,8.215-3.681,8.215-8.243
		c0-4.56-3.654-8.241-8.215-8.241c-4.562,0-8.242,3.682-8.242,8.241C23.129,37.311,26.81,40.991,31.371,40.991z M31.371,46.485
		c-6.401,0-19.231,3.214-19.231,9.615v6.868h38.462v-6.868C50.602,49.699,37.772,46.485,31.371,46.485z M53.349,46.485
		c-0.796,0-1.704,0.054-2.666,0.137c3.188,2.31,5.412,5.411,5.412,9.479v6.868H72.58v-6.868
		C72.58,49.699,59.75,46.485,53.349,46.485z"/>
</g>
</svg>
