<?xml version="1.0" encoding="utf-8"?>
<!-- Generator: Adobe Illustrator 16.0.4, SVG Export Plug-In . SVG Version: 6.00 Build 0)  -->
<!DOCTYPE svg PUBLIC "-//W3C//DTD SVG 1.1//EN" "http://www.w3.org/Graphics/SVG/1.1/DTD/svg11.dtd">
<svg version="1.1" id="Capa_1" xmlns="http://www.w3.org/2000/svg" xmlns:xlink="http://www.w3.org/1999/xlink" x="0px" y="0px"
	 width="26.5px" height="26.5px" viewBox="-1.125 -1.25 26.5 26.5" enable-background="new -1.125 -1.25 26.5 26.5"
	 xml:space="preserve">
<path fill="none" d="M24,0.142H0v24h24V0.142z"/>
<path d="M17.66,8.147L12,2.487l-5.66,5.66c-3.12,3.12-3.12,8.19,0,11.31c1.56,1.561,3.61,2.34,5.66,2.34s4.1-0.779,5.66-2.34
	C20.779,16.337,20.779,11.267,17.66,8.147z M12,19.807c-1.6,0-3.11-0.619-4.24-1.76C6.62,16.906,6,15.406,6,13.807
	c0-1.599,0.62-3.109,1.76-4.24L12,5.317V19.807z"/>
<circle fill="none" stroke="#000000" stroke-miterlimit="10" cx="12.125" cy="12" r="12.75"/>
</svg>
